<svg width="1920" height="1032" viewBox="0 0 1920 1032" fill="none" opacity="0.05" xmlns="http://www.w3.org/2000/svg">
<mask id="mask0_0_7753" style="mask-type:luminance" maskUnits="userSpaceOnUse" x="-45" y="0" width="1965" height="1032">
<path d="M1920 0H-45V1032H1920V0Z" fill="white"/>
</mask>
<g mask="url(#mask0_0_7753)">
<g style="mix-blend-mode:soft-light">
<path d="M951.889 836.403L926.916 1654.58L1051.51 1645.3L951.889 836.403Z" fill="black"/>
<path d="M872.042 835.275L645.163 1639.77L768.025 1652.38L872.042 835.275Z" fill="black"/>
<path d="M795.054 820.19L376.185 1575.84L491.95 1609.81L795.054 820.19Z" fill="black"/>
<path d="M724.29 791.813L131.739 1465.6L235.346 1519.42L724.29 791.813Z" fill="black"/>
<path d="M662.847 751.379L-77.4912 1313.85L9.43305 1385.19L662.847 751.379Z" fill="black"/>
<path d="M613.406 700.661L-242.361 1127.24L-175.92 1212.96L613.406 700.661Z" fill="black"/>
<path d="M578.132 641.871L-355.666 913.906L-312.613 1010.28L578.132 641.871Z" fill="black"/>
<path d="M558.56 577.579L-412.452 683.184L-394.669 785.992L558.56 577.579Z" fill="black"/>
<path d="M555.553 510.595L-410.239 445.158L-418.502 549.904L555.553 510.595Z" fill="black"/>
<path d="M569.236 443.85L-349.123 210.226L-383.071 312.337L569.236 443.85Z" fill="black"/>
<path d="M599.016 380.256L-231.777 -11.3417L-289.926 83.6695L599.016 380.256Z" fill="black"/>
<path d="M643.589 322.596L-63.3267 -209.862L-143.138 -126.105L643.589 322.596Z" fill="black"/>
<path d="M701.009 273.388L148.864 -376.658L50.8818 -307.816L701.009 273.388Z" fill="black"/>
<path d="M768.762 234.785L395.523 -504.441L283.65 -453.52L768.762 234.785Z" fill="black"/>
<path d="M843.892 208.472L665.868 -587.626L544.996 -556.852L843.892 208.472Z" fill="black"/>
<path d="M923.112 195.598L948.087 -622.577L823.496 -613.294L923.112 195.598Z" fill="black"/>
<path d="M1002.96 196.728L1229.84 -607.768L1106.98 -620.382L1002.96 196.728Z" fill="black"/>
<path d="M1079.95 211.811L1498.82 -543.842L1383.05 -577.806L1079.95 211.811Z" fill="black"/>
<path d="M1150.71 240.19L1743.26 -433.597L1639.65 -487.424L1150.71 240.19Z" fill="black"/>
<path d="M1212.16 280.623L1952.49 -281.851L1865.57 -353.185L1212.16 280.623Z" fill="black"/>
<path d="M1261.59 331.342L2117.36 -95.2355L2050.92 -180.964L1261.59 331.342Z" fill="black"/>
<path d="M1296.87 390.133L2230.67 118.095L2187.61 21.7217L1296.87 390.133Z" fill="black"/>
<path d="M1316.44 454.423L2287.45 348.816L2269.67 246.008L1316.44 454.423Z" fill="black"/>
<path d="M1319.45 521.405L2285.24 586.845L2293.5 482.097L1319.45 521.405Z" fill="black"/>
<path d="M1305.76 588.152L2224.13 821.774L2258.07 719.665L1305.76 588.152Z" fill="black"/>
<path d="M1275.98 651.745L2106.78 1043.34L2164.93 948.334L1275.98 651.745Z" fill="black"/>
<path d="M1231.41 709.404L1938.33 1241.86L2018.14 1158.11L1231.41 709.404Z" fill="black"/>
<path d="M1173.99 758.613L1726.14 1408.66L1824.12 1339.82L1173.99 758.613Z" fill="black"/>
<path d="M1106.24 797.218L1479.48 1536.44L1591.35 1485.52L1106.24 797.218Z" fill="black"/>
<path d="M1031.11 823.532L1209.13 1619.63L1330.01 1588.85L1031.11 823.532Z" fill="black"/>
</g>
</g>
</svg>
